<svg width="12" height="12" viewBox="0 0 12 12" fill="none" xmlns="http://www.w3.org/2000/svg">
<path d="M3.73999 9.17498L5.28999 10.375C5.48999 10.575 5.93999 10.675 6.23999 10.675H8.13999C8.73999 10.675 9.38999 10.225 9.53999 9.62498L10.74 5.97498C10.99 5.27498 10.54 4.67498 9.78999 4.67498H7.78999C7.48999 4.67498 7.23999 4.42498 7.28999 4.07498L7.53999 2.47498C7.63999 2.02498 7.33999 1.52498 6.88999 1.37498C6.48999 1.22498 5.98999 1.42498 5.78999 1.72498L3.73999 4.77498" stroke="#6F7788" stroke-miterlimit="10"/>
<path d="M1.18994 9.17495V4.27495C1.18994 3.57495 1.48994 3.32495 2.18994 3.32495H2.68994C3.38994 3.32495 3.68994 3.57495 3.68994 4.27495V9.17495C3.68994 9.87495 3.38994 10.125 2.68994 10.125H2.18994C1.48994 10.125 1.18994 9.87495 1.18994 9.17495Z" stroke="#6F7788" stroke-linecap="round" stroke-linejoin="round"/>
</svg>
