<svg width="16" height="16" viewBox="0 0 16 16" fill="none" xmlns="http://www.w3.org/2000/svg">
<path d="M5.66659 12.6667H5.33325C2.66659 12.6667 1.33325 12 1.33325 8.66671V5.33337C1.33325 2.66671 2.66659 1.33337 5.33325 1.33337H10.6666C13.3333 1.33337 14.6666 2.66671 14.6666 5.33337V8.66671C14.6666 11.3334 13.3333 12.6667 10.6666 12.6667H10.3333C10.1266 12.6667 9.92658 12.7667 9.79992 12.9334L8.79992 14.2667C8.35992 14.8534 7.63992 14.8534 7.19992 14.2667L6.19992 12.9334C6.09325 12.7867 5.84659 12.6667 5.66659 12.6667Z" stroke="#3A4980" stroke-width="1.5" stroke-miterlimit="10" stroke-linecap="round" stroke-linejoin="round"/>
<path d="M10.6644 7.33333H10.6704" stroke="#3A4980" stroke-width="2" stroke-linecap="round" stroke-linejoin="round"/>
<path d="M7.99691 7.33333H8.0029" stroke="#3A4980" stroke-width="2" stroke-linecap="round" stroke-linejoin="round"/>
<path d="M5.32967 7.33333H5.33566" stroke="#3A4980" stroke-width="2" stroke-linecap="round" stroke-linejoin="round"/>
</svg>
